<svg xmlns:xl="http://www.w3.org/1999/xlink" xmlns="http://www.w3.org/2000/svg" xmlns:dc="http://purl.org/dc/elements/1.1/" version="1.1" viewBox="0 0 1e3 350" width="1000" height="350">
  <defs>
    <marker orient="auto" overflow="visible" markerUnits="strokeWidth" id="FilledArrow_Marker" stroke-linejoin="miter" stroke-miterlimit="10" viewBox="-1 -4 10 8" markerWidth="10" markerHeight="8" color="black">
      <g>
        <path d="M 8 0 L 0 -3 L 0 3 Z" fill="currentColor" stroke="currentColor" stroke-width="1"/>
      </g>
    </marker>
  </defs>
  <g id="Canvas_1" fill="none" fill-opacity="1" stroke-dasharray="none" stroke="none" stroke-opacity="1">
    <title>Canvas 1</title>
    <g id="Canvas_1_Layer_1">
      <title>Layer 1</title>
      <g id="Graphic_2">
        <rect x="50" y="100" width="100" height="80" fill="#dd4d4d" class="clickable"/>
        <rect x="50" y="100" width="100" height="80" stroke="#448" stroke-linecap="butt" stroke-linejoin="round" stroke-width="1" class="clickable"/>
      </g>
      <g id="Graphic_3">
        <title>Text</title>
        <text transform="translate(85 131.21973)" fill="black">
          <tspan font-family="Helvetica" font-size="14" fill="black" x="0" y="14" xml:space="preserve">AHU</tspan>
        </text>
      </g>
      <g id="Graphic_4">
        <rect x="42" y="135" width="8" height="8" fill="#66c" class="clickable"/>
        <rect x="42" y="135" width="8" height="8" stroke="#448" stroke-linecap="butt" stroke-linejoin="round" stroke-width="1" class="clickable"/>
      </g>
      <g id="Graphic_5">
        <rect x="150" y="135" width="8" height="8" fill="#66c" class="clickable"/>
        <rect x="150" y="135" width="8" height="8" stroke="#448" stroke-linecap="butt" stroke-linejoin="round" stroke-width="1" class="clickable"/>
      </g>
      <g id="Graphic_6">
        <rect x="200" y="130" width="60" height="20" fill="#ddf" class="clickable"/>
        <rect x="200" y="130" width="60" height="20" stroke="#448" stroke-linecap="butt" stroke-linejoin="round" stroke-width="1" class="clickable"/>
      </g>
      <g id="Graphic_7">
        <title>Text</title>
        <text transform="translate(213 132.75977)" fill="black">
          <tspan font-family="Helvetica" font-size="12" fill="black" x="0" y="11" xml:space="preserve">Duct</tspan>
        </text>
      </g>
      <g id="Graphic_8">
        <rect x="192" y="135" width="8" height="8" fill="#66c" class="clickable"/>
        <rect x="192" y="135" width="8" height="8" stroke="#448" stroke-linecap="butt" stroke-linejoin="round" stroke-width="1" class="clickable"/>
      </g>
      <g id="Graphic_11">
        <rect x="350" y="30" width="400" height="100" fill="#dd4d4d" class="clickable"/>
        <rect x="350" y="30" width="400" height="100" stroke="#448" stroke-linecap="butt" stroke-linejoin="round" stroke-width="1" class="clickable"/>
      </g>
      <g id="Graphic_12">
        <title>Text</title>
        <text transform="translate(530 36.219727)" fill="black">
          <tspan font-family="Helvetica" font-size="14" fill="black" x="0" y="14" xml:space="preserve">VAV 1</tspan>
        </text>
      </g>
      <g id="Graphic_13">
        <rect x="342" y="75" width="8" height="8" fill="#66c" class="clickable"/>
        <rect x="342" y="75" width="8" height="8" stroke="#448" stroke-linecap="butt" stroke-linejoin="round" stroke-width="1" class="clickable"/>
      </g>
      <g id="Graphic_14">
        <rect x="750" y="75" width="8" height="8" fill="#66c" class="clickable"/>
        <rect x="750" y="75" width="8" height="8" stroke="#448" stroke-linecap="butt" stroke-linejoin="round" stroke-width="1" class="clickable"/>
      </g>
      <g id="Graphic_15">
        <rect x="400" y="60" width="60" height="30" fill="#ddf" class="clickable"/>
        <rect x="400" y="60" width="60" height="30" stroke="#448" stroke-linecap="butt" stroke-linejoin="round" stroke-width="1" class="clickable"/>
      </g>
      <g id="Graphic_16">
        <title>Text</title>
        <text transform="translate(410 70.299805)" fill="black">
          <tspan font-family="Helvetica" font-size="10" fill="black" x="0" y="10" xml:space="preserve">Damper</tspan>
        </text>
      </g>
      <g id="Graphic_17">
        <rect x="392" y="75" width="8" height="8" fill="#66c" class="clickable"/>
        <rect x="392" y="75" width="8" height="8" stroke="#448" stroke-linecap="butt" stroke-linejoin="round" stroke-width="1" class="clickable"/>
      </g>
      <g id="Graphic_18">
        <rect x="460" y="75" width="8" height="8" fill="#66c" class="clickable"/>
        <rect x="460" y="75" width="8" height="8" stroke="#448" stroke-linecap="butt" stroke-linejoin="round" stroke-width="1" class="clickable"/>
      </g>
      <g id="Graphic_19">
        <rect x="510" y="72.33333" width="80" height="14" fill="#ddf" class="clickable"/>
        <rect x="510" y="72.33333" width="80" height="14" stroke="#448" stroke-linecap="butt" stroke-linejoin="round" stroke-width="1" class="clickable"/>
      </g>
      <g id="Graphic_20">
        <title>Text</title>
        <text transform="translate(535 74.299805)" fill="black">
          <tspan font-family="Helvetica" font-size="10" fill="black" x="0" y="10" xml:space="preserve">Duct</tspan>
        </text>
      </g>
      <g id="Graphic_23">
        <rect x="640" y="60" width="60" height="30" fill="#ddf" class="clickable"/>
        <rect x="640" y="60" width="60" height="30" stroke="#448" stroke-linecap="butt" stroke-linejoin="round" stroke-width="1" class="clickable"/>
      </g>
      <g id="Graphic_24">
        <title>Text</title>
        <text transform="translate(650 70.299805)" fill="black">
          <tspan font-family="Helvetica" font-size="10" fill="black" x="0" y="10" xml:space="preserve">Coil</tspan>
        </text>
      </g>
      <g id="Graphic_25">
        <rect x="632" y="75" width="8" height="8" fill="#66c" class="clickable"/>
        <rect x="632" y="75" width="8" height="8" stroke="#448" stroke-linecap="butt" stroke-linejoin="round" stroke-width="1" class="clickable"/>
      </g>
      <g id="Graphic_26">
        <rect x="700" y="75" width="8" height="8" fill="#66c" class="clickable"/>
        <rect x="700" y="75" width="8" height="8" stroke="#448" stroke-linecap="butt" stroke-linejoin="round" stroke-width="1" class="clickable"/>
      </g>
      <g id="Graphic_27">
        <rect x="850" y="40" width="100" height="70" fill="#ddf" class="clickable"/>
        <rect x="850" y="40" width="100" height="70" stroke="#448" stroke-linecap="butt" stroke-linejoin="round" stroke-width="1" class="clickable"/>
      </g>
      <g id="Graphic_28">
        <title>Text</title>
        <text transform="translate(875.4897 49.09212)" fill="black">
          <tspan font-family="Helvetica" font-size="14" fill="black" x="0" y="14" xml:space="preserve">Room 1</tspan>
        </text>
      </g>
      <g id="Graphic_29">
        <rect x="842" y="75" width="8" height="8" fill="#66c" class="clickable"/>
        <rect x="842" y="75" width="8" height="8" stroke="#448" stroke-linecap="butt" stroke-linejoin="round" stroke-width="1" class="clickable"/>
      </g>
      <g id="Graphic_30">
        <rect x="942" y="75" width="8" height="8" fill="#66c" class="clickable"/>
        <rect x="942" y="75" width="8" height="8" stroke="#448" stroke-linecap="butt" stroke-linejoin="round" stroke-width="1" class="clickable"/>
      </g>
      <g id="Graphic_31">
        <rect x="780" y="72.33333" width="40" height="14" fill="#ddf" class="clickable"/>
        <rect x="780" y="72.33333" width="40" height="14" stroke="#448" stroke-linecap="butt" stroke-linejoin="round" stroke-width="1" class="clickable"/>
      </g>
      <g id="Graphic_32">
        <title>Text</title>
        <text transform="translate(787 73.63314)" fill="black">
          <tspan font-family="Helvetica" font-size="10" fill="black" x="0" y="10" xml:space="preserve">Duct</tspan>
        </text>
      </g>
      <g id="Graphic_59">
        <rect x="150" y="10" width="60" height="20" fill="#ddf" class="clickable"/>
        <rect x="150" y="10" width="60" height="20" stroke="#448" stroke-linecap="butt" stroke-linejoin="round" stroke-width="1" class="clickable"/>
      </g>
      <g id="Graphic_60">
        <title>Text</title>
        <text transform="translate(165 12.759766)" fill="black">
          <tspan font-family="Helvetica" font-size="12" fill="black" x="0" y="11" xml:space="preserve">Duct</tspan>
        </text>
      </g>
      <g id="Graphic_61">
        <rect x="142" y="15" width="8" height="8" fill="#66c" class="clickable"/>
        <rect x="142" y="15" width="8" height="8" stroke="#448" stroke-linecap="butt" stroke-linejoin="round" stroke-width="1" class="clickable"/>
      </g>
      <g id="Graphic_62">
        <rect x="210" y="15" width="8" height="8" fill="#66c" class="clickable"/>
        <rect x="210" y="15" width="8" height="8" stroke="#448" stroke-linecap="butt" stroke-linejoin="round" stroke-width="1" class="clickable"/>
      </g>
      <g id="Line_101">
        <line x1="158" y1="139" x2="182.1" y2="139" marker-end="url(#FilledArrow_Marker)" stroke="black" stroke-linecap="round" stroke-linejoin="round" stroke-width="1"/>
      </g>
      <g id="Line_103">
        <path d="M 260 133.66667 C 260 133.1658 260.40603 132.75977 260.9069 132.75977 L 317.49026 132.75977 C 318.04254 132.75977 318.49026 132.31205 318.49026 131.75977 C 318.49026 131.75653 318.49024 131.7533 318.4902 131.75007 L 318.04953 86.30465 C 318.0495 86.30142 318.04948 86.29819 318.04948 86.29496 L 318.04948 80 C 318.04948 79.447715 318.4972 79 319.04948 79 L 332.1 79" marker-end="url(#FilledArrow_Marker)" stroke="black" stroke-linecap="round" stroke-linejoin="round" stroke-width="1"/>
      </g>
      <g id="Line_106">
        <path d="M 468 79 L 477.9924 79 C 477.9975 79 478.0025 79.00004 478.0076 79.000115 L 488.99705 79.16662 C 488.999 79.16665 489.001 79.16668 489.00295 79.16669 L 500.1002 79.26945" marker-end="url(#FilledArrow_Marker)" stroke="black" stroke-linecap="round" stroke-linejoin="round" stroke-width="1"/>
      </g>
      <g id="Line_107">
        <path d="M 590 79.33333 L 592.9954 79.33333 C 592.99846 79.33333 593.00154 79.33332 593.0046 79.33329 L 610.9883 79.166775 C 610.9961 79.1667 611.0039 79.16654 611.0117 79.16628 L 616.0837 79.00053 C 616.09456 79.00018 616.10545 79 616.1163 79 L 622.1 79" marker-end="url(#FilledArrow_Marker)" stroke="black" stroke-linecap="round" stroke-linejoin="round" stroke-width="1"/>
      </g>
      <g id="Line_109">
        <line x1="708" y1="79" x2="740.1" y2="79" marker-end="url(#FilledArrow_Marker)" stroke="black" stroke-linecap="round" stroke-linejoin="round" stroke-width="1"/>
      </g>
      <g id="Line_110">
        <path d="M 758 79 L 767.9172 79 C 767.9723 79 768.0273 79.00455 768.0816 79.01361 L 768.9287 79.15478 C 768.9762 79.162695 769.02415 79.16717 769.0723 79.16817 L 770.101 79.189605" marker-end="url(#FilledArrow_Marker)" stroke="black" stroke-linecap="round" stroke-linejoin="round" stroke-width="1"/>
      </g>
      <g id="Line_111">
        <path d="M 820 79.33333 L 822.9896 79.33333 C 822.9965 79.33333 823.0035 79.33326 823.0104 79.33312 L 828.5491 79.21773 C 828.5862 79.21695 828.6157 79.18624 828.6149 79.14912 C 828.6142 79.11343 828.5857 79.08455 828.55 79.08333 L 828.55 79.08333 C 828.527 79.08255 828.509 79.06327 828.5098 79.04026 C 828.5105 79.01781 828.52895 79 828.5514 79 L 832.1 79" marker-end="url(#FilledArrow_Marker)" stroke="black" stroke-linecap="round" stroke-linejoin="round" stroke-width="1"/>
      </g>
      <g id="Line_112">
        <line x1="350" y1="79" x2="382.1" y2="79" marker-end="url(#FilledArrow_Marker)" stroke="black" stroke-linecap="round" stroke-linejoin="round" stroke-width="1"/>
      </g>
      <g id="Line_114">
        <path d="M 950 79 L 971.6667 79 C 972.219 79 972.6667 78.552285 972.6667 78 L 972.6667 20 C 972.6667 19.447715 972.219 19 971.6667 19 L 227.9 19" marker-end="url(#FilledArrow_Marker)" stroke="black" stroke-linecap="round" stroke-linejoin="round" stroke-width="1"/>
      </g>
      <g id="Line_116">
        <path d="M 142 19 L 29.510417 19 C 28.958132 19 28.510417 19.447715 28.510417 20 L 28.510417 138 C 28.510417 138.55228 28.958132 139 29.510417 139 L 32.1 139" marker-end="url(#FilledArrow_Marker)" stroke="black" stroke-linecap="round" stroke-linejoin="round" stroke-width="1"/>
      </g>
      <g id="Graphic_183">
        <rect x="350" y="142.34375" width="400" height="100" fill="#ddf" class="clickable"/>
        <rect x="350" y="142.34375" width="400" height="100" stroke="#448" stroke-linecap="butt" stroke-linejoin="round" stroke-width="1" class="clickable"/>
      </g>
      <g id="Graphic_182">
        <title>Text</title>
        <text transform="translate(530 148.56348)" fill="black">
          <tspan font-family="Helvetica" font-size="14" fill="black" x="0" y="14" xml:space="preserve">VAV 2</tspan>
        </text>
      </g>
      <g id="Graphic_181">
        <rect x="341.41146" y="188.34375" width="8" height="8" fill="#66c" class="clickable"/>
        <rect x="341.41146" y="188.34375" width="8" height="8" stroke="#448" stroke-linecap="butt" stroke-linejoin="round" stroke-width="1" class="clickable"/>
      </g>
      <g id="Graphic_180">
        <rect x="750" y="187.34375" width="8" height="8" fill="#66c" class="clickable"/>
        <rect x="750" y="187.34375" width="8" height="8" stroke="#448" stroke-linecap="butt" stroke-linejoin="round" stroke-width="1" class="clickable"/>
      </g>
      <g id="Graphic_179">
        <rect x="400" y="172.34375" width="60" height="30" fill="#ddf" class="clickable"/>
        <rect x="400" y="172.34375" width="60" height="30" stroke="#448" stroke-linecap="butt" stroke-linejoin="round" stroke-width="1" class="clickable"/>
      </g>
      <g id="Graphic_178">
        <title>Text</title>
        <text transform="translate(410 182.64355)" fill="black">
          <tspan font-family="Helvetica" font-size="10" fill="black" x="0" y="10" xml:space="preserve">Damper</tspan>
        </text>
      </g>
      <g id="Graphic_177">
        <rect x="392" y="187.34375" width="8" height="8" fill="#66c" class="clickable"/>
        <rect x="392" y="187.34375" width="8" height="8" stroke="#448" stroke-linecap="butt" stroke-linejoin="round" stroke-width="1" class="clickable"/>
      </g>
      <g id="Graphic_176">
        <rect x="460" y="187.34375" width="8" height="8" fill="#66c" class="clickable"/>
        <rect x="460" y="187.34375" width="8" height="8" stroke="#448" stroke-linecap="butt" stroke-linejoin="round" stroke-width="1" class="clickable"/>
      </g>
      <g id="Graphic_175">
        <rect x="510" y="184.67708" width="80" height="14" fill="#ddf" class="clickable"/>
        <rect x="510" y="184.67708" width="80" height="14" stroke="#448" stroke-linecap="butt" stroke-linejoin="round" stroke-width="1" class="clickable"/>
      </g>
      <g id="Graphic_174">
        <title>Text</title>
        <text transform="translate(535 186.64355)" fill="black">
          <tspan font-family="Helvetica" font-size="10" fill="black" x="0" y="10" xml:space="preserve">Duct</tspan>
        </text>
      </g>
      <g id="Graphic_173">
        <rect x="640" y="172.34375" width="60" height="30" fill="#ddf" class="clickable"/>
        <rect x="640" y="172.34375" width="60" height="30" stroke="#448" stroke-linecap="butt" stroke-linejoin="round" stroke-width="1" class="clickable"/>
      </g>
      <g id="Graphic_172">
        <title>Text</title>
        <text transform="translate(650 182.64355)" fill="black">
          <tspan font-family="Helvetica" font-size="10" fill="black" x="0" y="10" xml:space="preserve">Coil</tspan>
        </text>
      </g>
      <g id="Graphic_171">
        <rect x="632" y="187.34375" width="8" height="8" fill="#66c" class="clickable"/>
        <rect x="632" y="187.34375" width="8" height="8" stroke="#448" stroke-linecap="butt" stroke-linejoin="round" stroke-width="1" class="clickable"/>
      </g>
      <g id="Graphic_170">
        <rect x="700" y="187.34375" width="8" height="8" fill="#66c" class="clickable"/>
        <rect x="700" y="187.34375" width="8" height="8" stroke="#448" stroke-linecap="butt" stroke-linejoin="round" stroke-width="1" class="clickable"/>
      </g>
      <g id="Graphic_169">
        <rect x="850" y="152.34375" width="100" height="70" fill="#ddf" class="clickable"/>
        <rect x="850" y="152.34375" width="100" height="70" stroke="#448" stroke-linecap="butt" stroke-linejoin="round" stroke-width="1" class="clickable"/>
      </g>
      <g id="Graphic_168">
        <title>Text</title>
        <text transform="translate(875.4897 161.43587)" fill="black">
          <tspan font-family="Helvetica" font-size="14" fill="black" x="0" y="14" xml:space="preserve">Room 2</tspan>
        </text>
      </g>
      <g id="Graphic_167">
        <rect x="842" y="187.34375" width="8" height="8" fill="#66c" class="clickable"/>
        <rect x="842" y="187.34375" width="8" height="8" stroke="#448" stroke-linecap="butt" stroke-linejoin="round" stroke-width="1" class="clickable"/>
      </g>
      <g id="Graphic_166">
        <rect x="942" y="187.34375" width="8" height="8" fill="#66c" class="clickable"/>
        <rect x="942" y="187.34375" width="8" height="8" stroke="#448" stroke-linecap="butt" stroke-linejoin="round" stroke-width="1" class="clickable"/>
      </g>
      <g id="Graphic_165">
        <rect x="780" y="184.67708" width="40" height="14" fill="#ddf" class="clickable"/>
        <rect x="780" y="184.67708" width="40" height="14" stroke="#448" stroke-linecap="butt" stroke-linejoin="round" stroke-width="1" class="clickable"/>
      </g>
      <g id="Graphic_164">
        <title>Text</title>
        <text transform="translate(787 185.97689)" fill="black">
          <tspan font-family="Helvetica" font-size="10" fill="black" x="0" y="10" xml:space="preserve">Duct</tspan>
        </text>
      </g>
      <g id="Graphic_163">
        <rect x="147.33691" y="243.38542" width="60" height="20" fill="#ddf" class="clickable"/>
        <rect x="147.33691" y="243.38542" width="60" height="20" stroke="#448" stroke-linecap="butt" stroke-linejoin="round" stroke-width="1" class="clickable"/>
      </g>
      <g id="Graphic_162">
        <title>Text</title>
        <text transform="translate(162.33691 246.14518)" fill="black">
          <tspan font-family="Helvetica" font-size="12" fill="black" x="0" y="11" xml:space="preserve">Duct</tspan>
        </text>
      </g>
      <g id="Graphic_161">
        <rect x="139.33691" y="248.38542" width="8" height="8" fill="#66c" class="clickable"/>
        <rect x="139.33691" y="248.38542" width="8" height="8" stroke="#448" stroke-linecap="butt" stroke-linejoin="round" stroke-width="1" class="clickable"/>
      </g>
      <g id="Graphic_160">
        <rect x="207.33691" y="248.38542" width="8" height="8" fill="#66c" class="clickable"/>
        <rect x="207.33691" y="248.38542" width="8" height="8" stroke="#448" stroke-linecap="butt" stroke-linejoin="round" stroke-width="1" class="clickable"/>
      </g>
      <g id="Line_157">
        <path d="M 468 191.34375 L 477.9924 191.34375 C 477.9975 191.34375 478.0025 191.34379 478.0076 191.34386 L 488.99705 191.51037 C 488.999 191.5104 489.001 191.51043 489.00295 191.51044 L 500.1002 191.6132" marker-end="url(#FilledArrow_Marker)" stroke="black" stroke-linecap="round" stroke-linejoin="round" stroke-width="1"/>
      </g>
      <g id="Line_156">
        <path d="M 590 191.67708 L 592.9954 191.67708 C 592.99846 191.67708 593.00154 191.67707 593.0046 191.67704 L 610.9883 191.51053 C 610.9961 191.51045 611.0039 191.5103 611.0117 191.51003 L 616.0837 191.34428 C 616.09456 191.34393 616.10545 191.34375 616.1163 191.34375 L 622.1 191.34375" marker-end="url(#FilledArrow_Marker)" stroke="black" stroke-linecap="round" stroke-linejoin="round" stroke-width="1"/>
      </g>
      <g id="Line_155">
        <line x1="708" y1="191.34375" x2="740.1" y2="191.34375" marker-end="url(#FilledArrow_Marker)" stroke="black" stroke-linecap="round" stroke-linejoin="round" stroke-width="1"/>
      </g>
      <g id="Line_154">
        <path d="M 758 191.34375 L 767.9172 191.34375 C 767.9723 191.34375 768.0273 191.3483 768.0816 191.35736 L 768.9287 191.49853 C 768.9762 191.50645 769.02415 191.51092 769.0723 191.51192 L 770.101 191.53336" marker-end="url(#FilledArrow_Marker)" stroke="black" stroke-linecap="round" stroke-linejoin="round" stroke-width="1"/>
      </g>
      <g id="Line_153">
        <path d="M 820 191.67708 L 822.9896 191.67708 C 822.9965 191.67708 823.0035 191.677 823.0104 191.67687 L 828.5491 191.56148 C 828.5862 191.5607 828.6157 191.52999 828.6149 191.49287 C 828.6142 191.45718 828.5857 191.4283 828.55 191.42708 L 828.55 191.42708 C 828.527 191.4263 828.509 191.40702 828.5098 191.38401 C 828.5105 191.36156 828.52895 191.34375 828.5514 191.34375 L 832.1 191.34375" marker-end="url(#FilledArrow_Marker)" stroke="black" stroke-linecap="round" stroke-linejoin="round" stroke-width="1"/>
      </g>
      <g id="Line_152">
        <path d="M 349.41146 192.34375 L 359.38933 192.34375 C 359.4041 192.34375 359.41883 192.34342 359.43356 192.34277 L 370.68166 191.84482 C 370.6977 191.8441 370.71373 191.843 370.72972 191.84153 L 376.05395 191.34802 C 376.08463 191.34517 376.11543 191.34375 376.14625 191.34375 L 382.1 191.34375" marker-end="url(#FilledArrow_Marker)" stroke="black" stroke-linecap="round" stroke-linejoin="round" stroke-width="1"/>
      </g>
      <g id="Line_192">
        <path d="M 260 140 L 269.7435 140 C 269.88516 140 270 139.88516 270 139.74349 C 270 139.60182 270.11484 139.48698 270.2565 139.48698 L 317.53906 139.48698 C 318.09135 139.48698 318.53906 139.9347 318.53906 140.48698 L 318.53906 191.34375 C 318.53906 191.89603 318.98678 192.34375 319.53906 192.34375 L 331.51146 192.34375" marker-end="url(#FilledArrow_Marker)" stroke="black" stroke-linecap="round" stroke-linejoin="round" stroke-width="1"/>
      </g>
      <g id="Line_193">
        <line x1="850" y1="79" x2="932.1" y2="79" marker-end="url(#FilledArrow_Marker)" stroke="black" stroke-linecap="round" stroke-linejoin="round" stroke-width="1"/>
      </g>
      <g id="Line_194">
        <line x1="850" y1="191.34375" x2="932.1" y2="191.34375" marker-end="url(#FilledArrow_Marker)" stroke="black" stroke-linecap="round" stroke-linejoin="round" stroke-width="1"/>
      </g>
      <g id="Line_195">
        <path d="M 950 191.34375 L 973 191.34375 C 973.5523 191.34375 974 191.79147 974 192.34375 L 974 251.38542 C 974 251.9377 973.5523 252.38542 973 252.38542 L 225.23691 252.38542" marker-end="url(#FilledArrow_Marker)" stroke="black" stroke-linecap="round" stroke-linejoin="round" stroke-width="1"/>
      </g>
      <g id="Line_196">
        <path d="M 138 252 L 29 252 C 28.447715 252 28 251.55228 28 251 L 28 140 C 28 139.44772 28.447715 139 29 139 L 32.1 139" marker-end="url(#FilledArrow_Marker)" stroke="black" stroke-linecap="round" stroke-linejoin="round" stroke-width="1"/>
      </g>
    </g>
  </g>
</svg>